<svg id="svg" version="1.1" width="400" height="400" viewBox="0 0 400 400" xmlns="http://www.w3.org/2000/svg" xmlns:xlink="http://www.w3.org/1999/xlink" ><g id="svgg"><path id="path0" d="" stroke="none" fill="#000000" fill-rule="evenodd"></path><path id="path1" d="M84.115 171.496 C 85.388 171.576,87.368 171.575,88.515 171.494 C 89.662 171.414,88.620 171.349,86.200 171.350 C 83.780 171.351,82.842 171.416,84.115 171.496 M120.300 171.496 C 121.675 171.574,123.925 171.574,125.300 171.496 C 126.675 171.418,125.550 171.354,122.800 171.354 C 120.050 171.354,118.925 171.418,120.300 171.496 M156.180 171.561 C 155.971 171.760,155.440 172.009,155.000 172.115 C 154.241 172.297,154.244 172.310,155.051 172.354 C 155.519 172.379,156.126 172.130,156.400 171.800 C 156.943 171.146,156.791 170.981,156.180 171.561 M159.916 171.497 C 161.299 171.575,163.459 171.574,164.716 171.495 C 165.972 171.416,164.840 171.352,162.200 171.353 C 159.560 171.353,158.532 171.418,159.916 171.497 M196.700 171.496 C 198.075 171.574,200.325 171.574,201.700 171.496 C 203.075 171.418,201.950 171.354,199.200 171.354 C 196.450 171.354,195.325 171.418,196.700 171.496 M242.716 171.497 C 244.099 171.575,246.259 171.574,247.516 171.495 C 248.772 171.416,247.640 171.352,245.000 171.353 C 242.360 171.353,241.332 171.418,242.716 171.497 M281.500 171.499 C 285.075 171.566,290.925 171.566,294.500 171.499 C 298.075 171.433,295.150 171.379,288.000 171.379 C 280.850 171.379,277.925 171.433,281.500 171.499 M313.113 171.495 C 314.276 171.576,316.076 171.576,317.113 171.493 C 318.151 171.411,317.200 171.345,315.000 171.346 C 312.800 171.347,311.951 171.414,313.113 171.495 M336.100 171.497 C 337.585 171.574,340.015 171.574,341.500 171.497 C 342.985 171.420,341.770 171.357,338.800 171.357 C 335.830 171.357,334.615 171.420,336.100 171.497 M92.981 187.600 C 92.981 195.630,93.034 198.915,93.099 194.900 C 93.165 190.885,93.165 184.315,93.099 180.300 C 93.034 176.285,92.981 179.570,92.981 187.600 M129.791 208.400 C 129.791 227.650,129.840 235.525,129.900 225.900 C 129.960 216.275,129.960 200.525,129.900 190.900 C 129.840 181.275,129.791 189.150,129.791 208.400 M249.680 180.880 C 249.416 181.144,249.221 181.729,249.246 182.180 C 249.292 182.983,249.297 182.984,249.489 182.200 C 249.598 181.760,249.869 181.175,250.092 180.900 C 250.610 180.262,250.312 180.248,249.680 180.880 M284.724 184.699 C 287.873 184.767,292.913 184.767,295.924 184.699 C 298.936 184.631,296.360 184.576,290.200 184.576 C 284.040 184.576,281.576 184.632,284.724 184.699 M311.900 184.682 C 312.395 184.778,313.205 184.778,313.700 184.682 C 314.195 184.587,313.790 184.509,312.800 184.509 C 311.810 184.509,311.405 184.587,311.900 184.682 M337.300 184.687 C 337.905 184.778,338.895 184.778,339.500 184.687 C 340.105 184.595,339.610 184.520,338.400 184.520 C 337.190 184.520,336.695 184.595,337.300 184.687 M197.168 190.300 C 197.359 191.681,197.387 191.709,197.519 190.651 C 197.598 190.019,197.505 189.345,197.312 189.152 C 197.110 188.950,197.049 189.440,197.168 190.300 M271.285 189.613 C 270.495 190.878,270.653 196.191,271.500 196.832 C 272.096 197.282,272.125 197.278,271.700 196.801 C 271.047 196.068,271.025 190.335,271.673 189.687 C 271.934 189.426,272.062 189.129,271.958 189.025 C 271.855 188.921,271.552 189.186,271.285 189.613 M151.680 191.680 C 151.416 191.944,151.229 192.799,151.264 193.580 L 151.328 195.000 151.497 193.602 C 151.589 192.832,151.853 191.977,152.082 191.702 C 152.612 191.062,152.314 191.046,151.680 191.680 M362.589 217.400 C 362.589 231.700,362.639 237.492,362.700 230.271 C 362.761 223.050,362.761 211.350,362.700 204.271 C 362.639 197.192,362.589 203.100,362.589 217.400 M187.388 218.600 C 187.388 232.680,187.439 238.382,187.500 231.271 C 187.561 224.160,187.561 212.640,187.500 205.671 C 187.438 198.702,187.388 204.520,187.388 218.600 M349.388 219.600 C 349.388 232.910,349.438 238.355,349.500 231.700 C 349.561 225.045,349.561 214.155,349.500 207.500 C 349.438 200.845,349.388 206.290,349.388 219.600 M200.254 200.670 C 200.503 200.851,200.807 201.360,200.928 201.800 C 201.101 202.431,201.132 202.395,201.074 201.631 C 201.033 201.099,200.730 200.590,200.400 200.501 C 200.004 200.394,199.954 200.451,200.254 200.670 M242.156 203.771 C 242.035 204.085,242.004 204.760,242.086 205.271 C 242.195 205.954,242.288 205.804,242.437 204.700 C 242.647 203.147,242.536 202.781,242.156 203.771 M92.981 229.600 C 92.981 237.630,93.034 240.915,93.099 236.900 C 93.165 232.885,93.165 226.315,93.099 222.300 C 93.034 218.285,92.981 221.570,92.981 229.600 M270.961 221.200 C 270.961 224.610,271.022 226.005,271.097 224.300 C 271.172 222.595,271.172 219.805,271.097 218.100 C 271.022 216.395,270.961 217.790,270.961 221.200 M222.284 221.200 C 222.169 221.639,222.238 222.100,222.438 222.223 C 222.637 222.346,222.800 221.987,222.800 221.424 C 222.800 220.198,222.572 220.099,222.284 221.200 M83.900 245.896 C 85.275 245.974,87.525 245.974,88.900 245.896 C 90.275 245.818,89.150 245.754,86.400 245.754 C 83.650 245.754,82.525 245.818,83.900 245.896 M120.100 245.897 C 121.585 245.974,124.015 245.974,125.500 245.897 C 126.985 245.820,125.770 245.757,122.800 245.757 C 119.830 245.757,118.615 245.820,120.100 245.897 M141.516 245.897 C 142.899 245.975,145.059 245.974,146.316 245.895 C 147.572 245.816,146.440 245.752,143.800 245.753 C 141.160 245.753,140.132 245.818,141.516 245.897 M177.700 245.897 C 179.185 245.974,181.615 245.974,183.100 245.897 C 184.585 245.820,183.370 245.757,180.400 245.757 C 177.430 245.757,176.215 245.820,177.700 245.897 M219.100 245.897 C 220.695 245.973,223.305 245.973,224.900 245.897 C 226.495 245.821,225.190 245.759,222.000 245.759 C 218.810 245.759,217.505 245.821,219.100 245.897 M281.274 245.899 C 284.945 245.965,291.065 245.965,294.874 245.899 C 298.683 245.834,295.680 245.780,288.200 245.780 C 280.720 245.779,277.603 245.833,281.274 245.899 M319.516 245.897 C 320.899 245.975,323.059 245.974,324.316 245.895 C 325.572 245.816,324.440 245.752,321.800 245.753 C 319.160 245.753,318.132 245.818,319.516 245.897 M353.500 245.896 C 354.875 245.974,357.125 245.974,358.500 245.896 C 359.875 245.818,358.750 245.754,356.000 245.754 C 353.250 245.754,352.125 245.818,353.500 245.896 " stroke="none" fill="#333333" fill-rule="evenodd"></path><path id="path2" d="" stroke="none" fill="#0000ff" fill-rule="evenodd"></path><path id="path3" d="M80.436 172.051 C 79.340 172.939,79.099 244.233,80.190 244.651 C 80.523 244.779,80.696 245.045,80.574 245.242 C 80.311 245.667,80.069 245.653,86.549 245.601 C 93.477 245.545,92.800 247.254,92.800 229.829 L 92.800 215.200 104.200 215.200 L 115.600 215.200 115.600 230.000 C 115.600 242.502,115.688 244.800,116.167 244.800 C 116.478 244.800,116.800 244.999,116.881 245.242 C 117.168 246.104,128.454 245.701,129.081 244.806 C 130.032 243.448,130.031 172.612,129.080 172.018 C 127.782 171.207,117.315 171.372,116.381 172.217 C 115.634 172.894,115.600 173.550,115.600 187.462 L 115.600 202.000 104.200 202.000 L 92.800 202.000 92.800 187.296 C 92.800 172.708,92.793 172.588,91.945 172.058 C 90.586 171.210,81.481 171.204,80.436 172.051 M156.300 171.920 C 156.063 172.206,155.493 172.411,155.034 172.376 C 153.605 172.266,153.144 172.385,153.400 172.800 C 153.540 173.027,153.204 173.200,152.624 173.200 C 152.061 173.200,151.600 173.380,151.600 173.600 C 151.600 173.820,151.259 174.000,150.843 174.000 C 150.426 174.000,149.979 174.278,149.848 174.619 C 149.718 174.959,149.383 175.186,149.105 175.123 C 148.558 174.999,140.800 182.434,140.800 183.082 C 140.800 183.645,139.617 185.942,139.192 186.205 C 138.996 186.326,138.927 186.667,139.040 186.961 C 139.153 187.256,138.961 187.606,138.613 187.740 C 138.162 187.913,138.053 188.273,138.234 188.994 C 138.394 189.629,138.248 190.372,137.844 190.989 C 136.926 192.390,136.851 244.800,137.767 244.800 C 138.078 244.800,138.397 244.992,138.476 245.227 C 138.692 245.876,148.505 245.791,149.563 245.130 C 150.383 244.618,150.400 244.360,150.400 232.104 L 150.400 219.600 161.800 219.600 L 173.200 219.600 173.200 232.013 C 173.200 242.656,173.285 244.458,173.798 244.654 C 174.126 244.781,174.296 245.045,174.174 245.242 C 173.911 245.668,173.595 245.650,180.548 245.601 C 184.662 245.572,186.237 245.420,186.642 245.015 C 187.336 244.322,187.500 192.940,186.811 192.251 C 186.585 192.025,186.394 191.201,186.387 190.420 C 186.380 189.639,186.116 188.658,185.800 188.241 C 185.484 187.824,185.325 187.321,185.447 187.123 C 185.569 186.926,185.379 186.323,185.025 185.782 C 184.671 185.242,184.485 184.800,184.611 184.800 C 184.738 184.800,184.382 184.374,183.821 183.854 C 183.259 183.334,182.799 182.659,182.799 182.354 C 182.797 181.896,179.109 177.937,176.800 175.915 C 175.677 174.932,174.030 174.000,173.414 174.000 C 173.076 174.000,172.800 173.820,172.800 173.600 C 172.800 173.380,172.462 173.200,172.049 173.200 C 171.636 173.200,171.089 172.949,170.834 172.641 C 170.575 172.329,170.006 172.178,169.544 172.299 C 169.090 172.417,168.582 172.295,168.416 172.026 C 167.970 171.304,156.891 171.207,156.300 171.920 M192.776 172.226 C 191.860 173.201,191.792 174.691,192.615 175.779 C 192.939 176.207,193.105 176.869,192.984 177.249 C 192.854 177.660,193.040 178.094,193.442 178.320 C 193.893 178.572,194.043 178.992,193.891 179.574 C 193.745 180.130,193.869 180.529,194.231 180.667 C 194.568 180.797,194.800 181.438,194.800 182.243 C 194.800 182.989,194.980 183.600,195.200 183.600 C 195.420 183.600,195.606 184.095,195.613 184.700 C 195.620 185.305,195.891 186.151,196.215 186.579 C 196.539 187.007,196.708 187.661,196.590 188.032 C 196.463 188.431,196.638 188.806,197.019 188.952 C 197.450 189.117,197.638 189.626,197.590 190.499 C 197.483 192.465,197.562 192.871,198.000 192.600 C 198.233 192.456,198.400 192.855,198.400 193.553 C 198.400 194.213,198.580 194.864,198.800 195.000 C 199.020 195.136,199.200 195.755,199.200 196.375 C 199.200 196.995,199.456 197.715,199.769 197.974 C 200.082 198.234,200.262 198.867,200.169 199.381 C 200.063 199.967,200.226 200.401,200.607 200.547 C 201.007 200.701,201.181 201.217,201.117 202.060 C 201.061 202.793,201.229 203.410,201.510 203.503 C 201.779 203.593,202.000 204.091,202.000 204.610 C 202.000 205.128,202.180 205.664,202.400 205.800 C 202.620 205.936,202.800 206.647,202.800 207.381 C 202.800 208.157,203.035 208.805,203.362 208.930 C 203.711 209.064,203.891 209.628,203.836 210.418 C 203.788 211.118,203.985 211.927,204.274 212.217 C 204.563 212.506,204.800 213.195,204.800 213.748 C 204.800 214.301,204.980 214.864,205.200 215.000 C 205.420 215.136,205.600 215.766,205.600 216.400 C 205.600 217.034,205.780 217.664,206.000 217.800 C 206.220 217.936,206.400 218.451,206.400 218.944 C 206.400 219.437,206.569 220.011,206.776 220.220 C 206.983 220.429,207.247 221.125,207.362 221.768 C 207.477 222.410,207.784 223.066,208.043 223.227 C 208.303 223.387,208.417 223.890,208.299 224.344 C 208.178 224.806,208.329 225.375,208.641 225.634 C 208.949 225.889,209.200 226.616,209.200 227.249 C 209.200 227.882,209.380 228.400,209.600 228.400 C 209.820 228.400,210.006 229.165,210.013 230.100 C 210.020 231.035,210.277 232.132,210.585 232.539 C 210.893 232.945,211.049 233.529,210.931 233.836 C 210.813 234.142,210.991 234.499,211.326 234.627 C 211.707 234.773,211.873 235.207,211.769 235.782 C 211.676 236.295,211.868 236.924,212.201 237.201 C 212.530 237.474,212.800 238.306,212.800 239.049 C 212.800 239.792,212.980 240.400,213.200 240.400 C 213.420 240.400,213.600 240.918,213.600 241.551 C 213.600 242.184,213.870 242.926,214.200 243.200 C 214.530 243.474,214.800 243.946,214.800 244.249 C 214.800 244.552,214.991 244.800,215.224 244.800 C 215.457 244.800,215.536 244.980,215.400 245.200 C 215.264 245.420,215.343 245.605,215.576 245.611 C 221.418 245.769,228.213 245.562,228.326 245.223 C 228.403 244.990,228.722 244.800,229.033 244.800 C 229.371 244.800,229.600 244.396,229.600 243.800 C 229.600 243.250,229.780 242.800,230.000 242.800 C 230.220 242.800,230.400 242.282,230.400 241.649 C 230.400 241.016,230.670 240.274,230.999 240.001 C 231.334 239.722,231.524 239.095,231.430 238.575 C 231.337 238.064,231.432 237.589,231.640 237.520 C 231.848 237.451,232.115 236.855,232.233 236.197 C 232.351 235.539,232.617 234.829,232.824 234.620 C 233.031 234.411,233.200 233.736,233.200 233.120 C 233.200 232.504,233.380 232.000,233.600 232.000 C 233.820 232.000,234.000 231.482,234.000 230.849 C 234.000 230.216,234.266 229.477,234.591 229.207 C 234.916 228.938,235.124 228.335,235.053 227.868 C 234.982 227.401,235.132 226.811,235.388 226.555 C 235.643 226.300,235.812 225.518,235.764 224.818 C 235.709 224.028,235.889 223.464,236.238 223.330 C 236.565 223.205,236.800 222.557,236.800 221.781 C 236.800 221.047,236.980 220.336,237.200 220.200 C 237.420 220.064,237.600 219.528,237.600 219.010 C 237.600 218.491,237.821 217.993,238.090 217.903 C 238.365 217.812,238.540 217.201,238.487 216.514 C 238.427 215.717,238.608 215.206,239.006 215.053 C 239.414 214.897,239.556 214.473,239.432 213.788 C 239.312 213.123,239.450 212.679,239.823 212.536 C 240.166 212.404,240.400 211.774,240.400 210.981 C 240.400 210.247,240.580 209.536,240.800 209.400 C 241.020 209.264,241.200 208.728,241.200 208.210 C 241.200 207.691,241.417 207.194,241.682 207.106 C 241.977 207.008,242.127 206.306,242.068 205.301 C 241.997 204.101,242.154 203.554,242.647 203.278 C 243.035 203.061,243.223 202.638,243.089 202.288 C 242.960 201.953,243.107 201.345,243.415 200.939 C 243.723 200.532,243.980 199.705,243.987 199.100 C 243.994 198.495,244.180 198.000,244.400 198.000 C 244.620 198.000,244.800 197.475,244.800 196.833 C 244.800 196.192,245.021 195.593,245.290 195.503 C 245.571 195.410,245.739 194.793,245.683 194.060 C 245.618 193.207,245.792 192.701,246.205 192.543 C 246.566 192.404,246.735 192.024,246.610 191.632 C 246.492 191.261,246.661 190.607,246.985 190.179 C 247.309 189.751,247.580 188.905,247.587 188.300 C 247.594 187.695,247.780 187.200,248.000 187.200 C 248.220 187.200,248.400 186.390,248.400 185.400 C 248.400 184.410,248.580 183.600,248.800 183.600 C 249.020 183.600,249.200 183.082,249.200 182.449 C 249.200 181.816,249.478 181.067,249.818 180.785 C 250.158 180.503,250.352 180.053,250.250 179.786 C 250.147 179.518,250.319 178.807,250.632 178.204 C 250.944 177.602,251.200 176.769,251.200 176.354 C 251.200 175.939,251.380 175.600,251.600 175.600 C 252.231 175.600,252.066 172.809,251.395 172.138 C 249.873 170.616,238.000 171.491,238.000 173.125 C 238.000 173.418,237.729 173.928,237.398 174.259 C 237.067 174.591,236.872 175.284,236.966 175.800 C 237.069 176.370,236.912 176.825,236.568 176.957 C 236.250 177.079,236.000 177.709,236.000 178.387 C 236.000 179.054,235.820 179.600,235.600 179.600 C 235.380 179.600,235.200 180.410,235.200 181.400 C 235.200 182.390,235.020 183.200,234.800 183.200 C 234.580 183.200,234.400 183.718,234.400 184.351 C 234.400 184.984,234.130 185.726,233.801 185.999 C 233.468 186.276,233.276 186.905,233.369 187.418 C 233.469 187.970,233.308 188.426,232.968 188.557 C 232.650 188.679,232.400 189.309,232.400 189.987 C 232.400 190.654,232.220 191.200,232.000 191.200 C 231.780 191.200,231.600 191.830,231.600 192.600 C 231.600 193.370,231.420 194.000,231.200 194.000 C 230.980 194.000,230.800 194.518,230.800 195.151 C 230.800 195.784,230.530 196.526,230.201 196.799 C 229.868 197.076,229.676 197.705,229.769 198.218 C 229.864 198.743,229.710 199.226,229.411 199.341 C 229.122 199.451,228.788 200.320,228.668 201.271 C 228.312 204.118,227.930 205.600,227.555 205.600 C 227.360 205.600,227.200 206.118,227.200 206.751 C 227.200 207.384,226.926 208.129,226.591 208.407 C 226.239 208.700,226.082 209.227,226.218 209.658 C 226.353 210.082,226.185 210.673,225.827 211.030 C 225.482 211.375,225.200 212.174,225.200 212.805 C 225.200 213.436,225.020 214.064,224.800 214.200 C 224.580 214.336,224.400 214.887,224.400 215.424 C 224.400 215.961,224.220 216.400,224.000 216.400 C 223.780 216.400,223.600 216.918,223.600 217.551 C 223.600 218.184,223.343 218.915,223.029 219.176 C 222.645 219.495,222.524 220.132,222.658 221.125 L 222.858 222.600 222.049 221.680 C 221.594 221.164,221.346 220.485,221.482 220.131 C 221.625 219.759,221.446 219.345,221.044 219.121 C 220.629 218.888,220.453 218.463,220.591 218.027 C 220.717 217.630,220.547 217.088,220.209 216.807 C 219.874 216.529,219.600 215.694,219.600 214.951 C 219.600 214.208,219.420 213.600,219.200 213.600 C 218.980 213.600,218.800 213.071,218.800 212.424 C 218.800 211.777,218.620 211.136,218.400 211.000 C 218.180 210.864,218.000 210.146,218.000 209.405 C 218.000 208.664,217.718 207.775,217.373 207.430 C 217.015 207.073,216.847 206.482,216.982 206.058 C 217.118 205.627,216.961 205.100,216.609 204.807 C 216.274 204.529,216.000 203.784,216.000 203.151 C 216.000 202.518,215.820 202.000,215.600 202.000 C 215.380 202.000,215.194 201.505,215.187 200.900 C 215.180 200.295,214.923 199.468,214.615 199.061 C 214.307 198.655,214.143 198.093,214.250 197.813 C 214.358 197.532,214.161 197.018,213.812 196.669 C 213.441 196.299,213.252 195.625,213.357 195.048 C 213.469 194.432,213.323 193.979,212.968 193.843 C 212.656 193.723,212.400 193.180,212.400 192.636 C 212.400 192.092,212.220 191.536,212.000 191.400 C 211.780 191.264,211.600 190.634,211.600 190.000 C 211.600 189.366,211.420 188.736,211.200 188.600 C 210.980 188.464,210.800 187.638,210.800 186.764 C 210.800 185.760,210.591 185.095,210.232 184.957 C 209.892 184.826,209.731 184.370,209.831 183.818 C 209.924 183.305,209.732 182.676,209.399 182.399 C 209.070 182.126,208.800 181.384,208.800 180.751 C 208.800 180.118,208.620 179.600,208.400 179.600 C 208.180 179.600,208.000 178.985,208.000 178.233 C 208.000 177.482,207.826 176.807,207.613 176.733 C 207.400 176.660,207.182 176.027,207.130 175.328 C 207.077 174.628,206.846 174.088,206.617 174.128 C 206.388 174.167,206.200 173.840,206.200 173.400 C 206.200 171.203,194.684 170.196,192.776 172.226 M274.000 171.900 C 274.000 172.205,273.453 172.400,272.600 172.400 C 271.830 172.400,271.200 172.580,271.200 172.800 C 271.200 173.020,271.025 173.200,270.812 173.200 C 269.579 173.200,265.852 175.476,263.651 177.572 C 262.250 178.908,261.235 180.000,261.397 180.000 C 261.796 180.000,260.407 182.121,259.754 182.511 C 259.467 182.681,259.334 183.085,259.458 183.407 C 259.582 183.730,259.417 184.095,259.092 184.220 C 258.766 184.345,258.500 184.907,258.500 185.469 C 258.500 186.031,258.343 186.606,258.150 186.745 C 257.957 186.885,257.746 187.720,257.679 188.600 C 257.613 189.480,257.388 190.260,257.179 190.333 C 256.649 190.520,256.670 226.272,257.200 226.600 C 257.420 226.736,257.600 227.535,257.600 228.375 C 257.600 229.215,257.856 230.115,258.169 230.374 C 258.494 230.644,258.662 231.271,258.560 231.832 C 258.442 232.483,258.596 232.900,259.014 233.061 C 259.361 233.194,259.565 233.514,259.466 233.772 C 259.367 234.031,259.717 234.656,260.243 235.163 C 260.769 235.669,261.200 236.298,261.200 236.560 C 261.200 237.177,266.294 242.230,266.791 242.105 C 266.999 242.053,267.653 242.458,268.243 243.005 C 268.834 243.552,269.730 244.000,270.235 244.000 C 270.740 244.000,271.264 244.180,271.400 244.400 C 271.536 244.620,272.177 244.800,272.824 244.800 C 273.471 244.800,274.000 244.980,274.000 245.200 C 274.000 245.861,301.623 245.709,302.500 245.043 C 303.497 244.287,303.540 234.891,302.554 233.386 L 301.908 232.400 289.554 232.400 C 281.585 232.400,277.200 232.258,277.200 232.000 C 277.200 231.780,276.750 231.600,276.200 231.600 C 275.650 231.600,275.200 231.420,275.200 231.200 C 275.200 230.980,274.924 230.800,274.587 230.800 C 273.812 230.800,271.600 228.568,271.600 227.786 C 271.600 227.464,271.420 227.200,271.200 227.200 C 270.951 227.200,270.800 224.867,270.800 221.000 C 270.800 217.133,270.649 214.800,270.400 214.800 C 270.180 214.800,270.003 214.485,270.006 214.100 C 270.010 213.692,270.135 213.573,270.306 213.813 C 270.468 214.041,270.870 214.206,271.200 214.180 C 271.530 214.155,272.199 214.374,272.686 214.667 C 274.101 215.518,301.084 215.437,302.311 214.577 C 303.432 213.792,303.700 203.643,302.629 202.571 C 302.158 202.101,299.867 202.000,289.629 202.000 C 281.610 202.000,277.200 201.858,277.200 201.600 C 277.200 201.380,276.862 201.200,276.449 201.200 C 276.036 201.200,275.474 200.930,275.200 200.600 C 274.926 200.270,274.454 200.000,274.151 200.000 C 273.848 200.000,273.600 199.850,273.600 199.668 C 273.600 199.485,273.144 199.091,272.586 198.793 C 272.028 198.494,271.658 198.027,271.762 197.754 C 271.867 197.482,271.693 197.043,271.376 196.780 C 268.296 194.224,273.235 184.636,277.236 185.407 C 277.621 185.481,278.034 185.288,278.153 184.978 C 278.332 184.511,280.381 184.418,290.189 184.431 C 300.136 184.445,302.104 184.353,302.605 183.852 C 303.556 182.902,303.465 172.767,302.500 172.074 C 301.483 171.344,274.000 171.176,274.000 171.900 M309.665 172.027 C 308.970 172.591,308.891 173.197,308.891 178.000 C 308.891 184.095,309.275 184.932,311.872 184.511 C 312.579 184.396,313.616 184.418,314.178 184.559 L 315.200 184.815 315.200 214.620 C 315.200 240.694,315.275 244.454,315.798 244.654 C 316.126 244.781,316.296 245.045,316.174 245.242 C 316.052 245.439,316.143 245.606,316.376 245.613 C 321.832 245.785,326.862 245.568,327.563 245.130 C 328.399 244.608,328.400 244.568,328.400 218.080 C 328.400 200.497,328.535 191.636,328.800 191.800 C 329.190 192.041,329.362 191.516,329.229 190.495 C 329.192 190.217,329.440 189.883,329.779 189.753 C 330.118 189.623,330.290 189.345,330.161 189.137 C 329.829 188.599,331.945 186.682,333.604 186.017 C 334.372 185.709,335.355 185.220,335.789 184.929 C 337.045 184.087,341.917 184.363,341.372 185.245 C 341.251 185.440,341.730 185.600,342.436 185.600 C 343.802 185.600,347.600 189.001,347.600 190.224 C 347.600 190.541,347.780 190.800,348.000 190.800 C 348.220 190.800,348.400 191.498,348.400 192.351 C 348.400 193.235,348.656 194.114,348.994 194.395 C 349.507 194.821,349.588 198.244,349.588 219.666 C 349.588 240.732,349.674 244.531,350.165 245.022 C 351.181 246.038,361.255 245.844,361.910 244.795 C 362.644 243.619,362.829 190.497,362.100 190.217 C 361.814 190.107,361.600 189.334,361.600 188.413 C 361.600 187.526,361.420 186.800,361.200 186.800 C 360.980 186.800,360.794 186.485,360.787 186.100 C 360.780 185.715,360.516 185.058,360.200 184.641 C 359.884 184.224,359.720 183.729,359.836 183.541 C 359.952 183.353,359.772 183.200,359.436 183.200 C 359.069 183.200,358.913 182.970,359.046 182.626 C 359.293 181.980,352.373 174.800,351.503 174.800 C 351.213 174.800,350.717 174.440,350.400 174.000 C 350.025 173.480,349.365 173.200,348.512 173.200 C 347.790 173.200,347.200 173.020,347.200 172.800 C 347.200 172.580,346.876 172.400,346.480 172.400 C 346.084 172.400,345.567 172.207,345.331 171.971 C 344.678 171.318,332.400 171.250,332.400 171.900 C 332.400 172.205,331.853 172.400,331.000 172.400 C 330.230 172.400,329.600 172.580,329.600 172.800 C 329.600 173.020,329.317 173.200,328.971 173.200 C 328.626 173.200,328.071 173.472,327.739 173.804 C 327.407 174.136,326.984 174.314,326.800 174.200 C 326.615 174.086,326.090 174.468,325.632 175.050 C 325.157 175.653,324.800 175.868,324.800 175.549 C 324.800 175.241,324.315 174.632,323.722 174.195 C 323.130 173.758,322.378 173.094,322.051 172.720 C 321.724 172.347,321.289 172.145,321.084 172.272 C 320.879 172.399,320.575 172.284,320.410 172.016 C 319.917 171.219,310.651 171.228,309.665 172.027 M162.696 184.651 C 163.188 184.783,163.514 185.016,163.419 185.169 C 163.325 185.321,164.002 185.491,164.924 185.545 C 165.846 185.599,166.771 185.813,166.980 186.021 C 167.189 186.230,167.585 186.400,167.861 186.400 C 168.641 186.400,172.445 190.395,172.373 191.138 C 172.253 192.358,172.397 192.849,172.800 192.600 C 173.061 192.439,173.200 194.796,173.200 199.376 L 173.200 206.400 161.800 206.400 L 150.400 206.400 150.400 201.571 C 150.400 197.995,150.543 196.599,150.953 196.190 C 151.325 195.818,151.442 195.069,151.310 193.903 C 151.166 192.621,151.282 192.030,151.757 191.635 C 152.111 191.342,152.400 190.926,152.400 190.711 C 152.400 189.437,157.286 185.612,158.946 185.587 C 159.416 185.580,160.149 185.310,160.576 184.987 C 161.453 184.324,161.468 184.322,162.696 184.651 " stroke="none" fill="#58585a" fill-rule="evenodd"></path><path id="path4" d="" stroke="none" fill="#990099" fill-rule="evenodd"></path><path id="path5" d="M192.700 338.682 C 193.195 338.778,194.005 338.778,194.500 338.682 C 194.995 338.587,194.590 338.509,193.600 338.509 C 192.610 338.509,192.205 338.587,192.700 338.682 " stroke="none" fill="#b62400" fill-rule="evenodd"></path><path id="path6" d="" stroke="none" fill="#009933" fill-rule="evenodd"></path><path id="path7" d="M314.149 82.146 C 313.901 82.429,313.574 83.053,313.422 83.531 C 313.270 84.009,312.978 84.400,312.773 84.400 C 312.568 84.400,312.400 84.929,312.400 85.576 C 312.400 86.223,312.220 86.864,312.000 87.000 C 311.780 87.136,311.600 87.597,311.600 88.024 C 311.600 88.451,311.420 88.800,311.200 88.800 C 310.980 88.800,310.800 89.083,310.800 89.429 C 310.800 89.774,310.530 90.327,310.200 90.657 C 309.870 90.987,309.600 91.599,309.600 92.016 C 309.600 92.434,309.240 93.417,308.800 94.200 C 308.360 94.983,308.000 95.889,308.000 96.212 C 308.000 96.535,307.820 96.800,307.600 96.800 C 307.380 96.800,307.200 97.160,307.200 97.600 C 307.200 98.040,307.055 98.400,306.877 98.400 C 306.699 98.400,306.233 99.128,305.840 100.018 C 304.894 102.162,305.518 103.525,309.033 106.988 C 310.445 108.379,311.600 109.743,311.600 110.018 C 311.600 110.294,312.230 111.131,313.000 111.879 C 313.770 112.627,314.400 113.423,314.400 113.648 C 314.400 113.873,314.625 114.285,314.900 114.563 C 315.175 114.841,315.760 115.570,316.200 116.184 C 316.640 116.798,317.405 117.720,317.900 118.232 C 318.395 118.744,318.800 119.466,318.800 119.835 C 318.800 120.204,319.134 120.797,319.543 121.153 C 319.951 121.509,320.413 122.205,320.570 122.700 C 320.726 123.195,321.022 123.600,321.227 123.600 C 321.432 123.600,321.600 123.960,321.600 124.400 C 321.600 124.840,321.750 125.200,321.932 125.200 C 322.115 125.200,322.512 125.695,322.815 126.300 C 323.118 126.905,323.585 127.670,323.854 128.000 C 324.123 128.330,324.362 128.780,324.386 129.000 C 324.410 129.220,324.783 129.806,325.215 130.303 C 325.647 130.800,326.000 131.475,326.000 131.803 C 326.000 132.131,326.180 132.400,326.400 132.400 C 326.620 132.400,326.800 132.642,326.800 132.939 C 326.800 133.626,327.933 135.912,328.425 136.216 C 328.631 136.343,328.800 136.797,328.800 137.224 C 328.800 137.651,328.980 138.000,329.200 138.000 C 329.420 138.000,329.600 138.540,329.600 139.200 C 329.600 139.860,329.780 140.400,330.000 140.400 C 330.220 140.400,330.400 140.738,330.400 141.151 C 330.400 141.564,330.668 142.124,330.996 142.396 C 331.323 142.668,331.505 143.030,331.400 143.200 C 331.295 143.370,331.477 143.732,331.804 144.004 C 332.132 144.276,332.400 145.016,332.400 145.649 C 332.400 146.282,332.580 146.800,332.800 146.800 C 333.020 146.800,333.200 147.149,333.200 147.576 C 333.200 148.003,333.380 148.464,333.600 148.600 C 333.820 148.736,334.000 149.299,334.000 149.852 C 334.000 150.405,334.272 151.129,334.604 151.461 C 334.936 151.793,335.096 152.245,334.959 152.466 C 334.741 152.819,335.017 153.558,336.459 156.495 C 336.646 156.877,336.800 157.631,336.800 158.171 C 336.800 158.711,336.961 159.252,337.158 159.374 C 337.495 159.582,337.614 160.128,338.231 164.285 C 338.369 165.211,338.733 166.178,339.041 166.434 C 339.348 166.689,339.600 167.324,339.600 167.844 C 339.600 169.176,340.781 170.400,342.065 170.400 C 342.663 170.400,343.264 170.580,343.400 170.800 C 343.536 171.020,344.357 171.200,345.224 171.200 C 346.091 171.200,346.800 171.380,346.800 171.600 C 346.800 171.820,347.258 172.000,347.817 172.000 C 348.376 172.000,349.229 172.368,349.711 172.818 C 350.610 173.655,352.658 174.800,353.257 174.800 C 353.798 174.800,358.400 179.607,358.400 180.173 C 358.400 180.952,360.405 182.800,361.250 182.800 C 363.296 182.800,364.599 177.814,363.224 175.244 C 363.016 174.857,362.806 173.412,362.756 172.032 C 362.704 170.589,362.439 169.297,362.133 168.990 C 361.829 168.686,361.600 167.585,361.600 166.429 C 361.600 165.313,361.420 164.400,361.200 164.400 C 360.980 164.400,360.800 163.590,360.800 162.600 C 360.800 161.610,360.620 160.800,360.400 160.800 C 360.180 160.800,360.000 159.990,360.000 159.000 C 360.000 158.010,359.820 157.200,359.600 157.200 C 359.380 157.200,359.200 156.502,359.200 155.649 C 359.200 154.758,358.945 153.886,358.600 153.600 C 358.270 153.326,358.000 152.584,358.000 151.951 C 358.000 151.318,357.820 150.800,357.600 150.800 C 357.380 150.800,357.200 149.990,357.200 149.000 C 357.200 148.010,357.020 147.200,356.800 147.200 C 356.580 147.200,356.400 146.682,356.400 146.049 C 356.400 145.416,356.132 144.676,355.804 144.404 C 355.477 144.132,355.295 143.770,355.400 143.600 C 355.505 143.430,355.323 143.068,354.996 142.796 C 354.668 142.524,354.400 141.784,354.400 141.151 C 354.400 140.518,354.220 140.000,354.000 140.000 C 353.780 140.000,353.600 139.471,353.600 138.824 C 353.600 138.177,353.420 137.536,353.200 137.400 C 352.980 137.264,352.800 136.803,352.800 136.376 C 352.800 135.949,352.640 135.600,352.443 135.600 C 352.247 135.600,351.974 135.150,351.836 134.600 C 351.698 134.050,351.408 133.600,351.192 133.600 C 350.977 133.600,350.800 133.071,350.800 132.424 C 350.800 131.777,350.620 131.136,350.400 131.000 C 350.180 130.864,350.000 130.403,350.000 129.976 C 350.000 129.549,349.820 129.200,349.600 129.200 C 349.380 129.200,349.200 129.042,349.200 128.849 C 349.200 128.350,348.109 126.014,347.216 124.600 C 346.800 123.940,346.445 123.085,346.429 122.700 C 346.413 122.315,346.249 122.000,346.064 122.000 C 345.879 122.000,345.492 121.285,345.203 120.411 C 344.915 119.536,344.256 118.504,343.739 118.116 C 343.223 117.728,342.800 117.103,342.800 116.729 C 342.800 116.354,342.620 115.936,342.400 115.800 C 342.180 115.664,342.000 115.302,342.000 114.995 C 342.000 114.688,341.550 113.986,341.000 113.436 C 340.450 112.886,340.000 112.198,340.000 111.906 C 340.000 111.615,339.640 111.117,339.200 110.800 C 338.760 110.483,338.400 110.021,338.400 109.773 C 338.400 108.916,337.148 106.819,335.977 105.713 C 335.329 105.102,334.798 104.422,334.797 104.201 C 334.795 103.981,334.165 103.137,333.397 102.327 C 332.628 101.516,332.000 100.635,332.000 100.367 C 332.000 100.100,331.370 99.269,330.600 98.521 C 329.830 97.773,329.200 96.900,329.200 96.581 C 329.200 96.261,329.020 96.000,328.800 96.000 C 328.580 96.000,328.400 95.773,328.400 95.495 C 328.400 95.217,327.920 94.632,327.333 94.195 C 325.806 93.058,324.004 91.079,324.002 90.538 C 324.000 90.123,318.113 84.039,316.029 82.300 C 315.043 81.477,314.755 81.453,314.149 82.146 " stroke="none" fill="#da38b4" fill-rule="evenodd"></path><path id="path8" d="M149.799 328.680 C 150.458 328.786,151.147 329.081,151.329 329.336 C 151.553 329.649,151.609 329.605,151.500 329.200 C 151.400 328.831,150.812 328.578,149.969 328.544 C 148.715 328.492,148.701 328.503,149.799 328.680 M174.200 335.803 C 175.114 336.121,177.529 336.209,177.348 335.916 C 177.241 335.742,176.398 335.614,175.476 335.632 C 174.554 335.649,173.980 335.726,174.200 335.803 M156.352 354.512 C 156.545 354.705,157.219 354.798,157.851 354.719 C 158.909 354.587,158.881 354.559,157.500 354.368 C 156.640 354.249,156.150 354.310,156.352 354.512 M170.765 358.126 C 170.944 358.305,171.881 358.391,172.846 358.318 L 174.600 358.185 172.519 357.993 C 171.375 357.887,170.585 357.947,170.765 358.126 M175.159 358.921 C 175.336 359.097,176.633 359.185,178.041 359.116 L 180.600 358.991 177.718 358.795 C 176.133 358.688,174.981 358.744,175.159 358.921 " stroke="none" fill="#ff0000" fill-rule="evenodd"></path><path id="path9" d="" stroke="none" fill="#999900" fill-rule="evenodd"></path><path id="path10" d="M40.914 222.200 C 40.917 223.300,40.995 223.703,41.087 223.095 C 41.179 222.486,41.177 221.586,41.082 221.095 C 40.987 220.603,40.911 221.100,40.914 222.200 M100.033 297.500 C 99.580 298.105,99.027 298.817,98.804 299.083 C 98.582 299.349,98.400 299.737,98.400 299.945 C 98.400 300.154,98.053 301.016,97.630 301.862 C 97.206 302.708,96.373 304.438,95.779 305.708 C 95.185 306.977,94.541 308.113,94.349 308.231 C 94.157 308.350,94.000 308.966,94.000 309.600 C 94.000 310.234,93.820 310.864,93.600 311.000 C 93.380 311.136,93.200 311.777,93.200 312.424 C 93.200 313.071,93.020 313.600,92.800 313.600 C 92.580 313.600,92.400 313.941,92.400 314.357 C 92.400 314.774,92.159 315.207,91.864 315.320 C 90.519 315.836,94.678 321.569,96.766 322.075 C 97.049 322.144,98.058 322.965,99.009 323.900 C 99.959 324.835,100.931 325.600,101.167 325.600 C 101.404 325.600,102.266 326.230,103.082 327.000 C 103.899 327.770,104.764 328.400,105.005 328.400 C 105.246 328.400,106.054 329.030,106.800 329.800 C 107.546 330.570,108.358 331.200,108.603 331.200 C 108.848 331.200,109.431 331.556,109.899 331.991 C 110.366 332.427,110.975 332.832,111.253 332.891 C 111.530 332.951,112.147 333.405,112.624 333.900 C 113.101 334.395,113.786 334.800,114.146 334.800 C 114.506 334.800,114.800 334.959,114.800 335.154 C 114.800 335.349,115.385 335.807,116.100 336.171 C 118.410 337.349,120.197 338.476,120.333 338.842 C 120.407 339.039,120.812 339.200,121.233 339.200 C 121.655 339.200,122.002 339.335,122.004 339.500 C 122.006 339.665,122.816 340.155,123.804 340.590 C 124.792 341.024,125.600 341.519,125.600 341.690 C 125.600 341.860,125.926 342.000,126.325 342.000 C 126.723 342.000,127.436 342.360,127.908 342.800 C 128.380 343.240,129.029 343.600,129.350 343.600 C 129.671 343.600,129.995 343.784,130.070 344.009 C 130.145 344.234,130.745 344.514,131.403 344.632 C 132.061 344.750,132.660 345.016,132.733 345.224 C 132.807 345.431,133.302 345.600,133.833 345.600 C 134.365 345.600,134.800 345.780,134.800 346.000 C 134.800 346.220,135.160 346.400,135.600 346.400 C 136.040 346.400,136.400 346.541,136.400 346.712 C 136.400 347.043,138.588 348.064,139.600 348.206 C 139.930 348.252,140.880 348.675,141.712 349.145 C 142.544 349.615,143.658 350.000,144.189 350.000 C 144.719 350.000,145.264 350.180,145.400 350.400 C 145.536 350.620,145.977 350.800,146.381 350.800 C 146.784 350.800,147.207 351.041,147.320 351.336 C 147.433 351.631,147.945 351.841,148.459 351.803 C 148.972 351.765,149.631 351.974,149.924 352.267 C 150.217 352.560,150.884 352.800,151.405 352.800 C 151.926 352.800,152.464 352.980,152.600 353.200 C 152.736 353.420,153.546 353.600,154.400 353.600 C 155.254 353.600,156.064 353.780,156.200 354.000 C 156.336 354.220,156.957 354.400,157.581 354.400 C 158.204 354.400,158.801 354.625,158.906 354.900 C 159.022 355.201,159.744 355.377,160.722 355.342 C 161.786 355.304,162.420 355.476,162.561 355.842 C 162.694 356.190,163.373 356.400,164.364 356.400 C 165.238 356.400,166.064 356.580,166.200 356.800 C 166.336 357.020,167.326 357.200,168.400 357.200 C 169.474 357.200,170.464 357.380,170.600 357.600 C 170.736 357.820,171.726 358.000,172.800 358.000 C 173.874 358.000,174.864 358.180,175.000 358.400 C 175.136 358.620,176.372 358.800,177.747 358.800 C 179.326 358.800,180.533 359.016,181.024 359.387 C 181.601 359.824,183.000 359.978,186.476 359.987 C 189.148 359.995,191.259 360.171,191.400 360.400 C 191.894 361.200,202.984 360.902,203.738 360.069 C 204.462 359.268,204.639 357.600,204.000 357.600 C 203.780 357.600,203.600 356.970,203.600 356.200 C 203.600 355.430,203.423 354.800,203.208 354.800 C 202.992 354.800,202.702 354.350,202.564 353.800 C 202.426 353.250,202.153 352.800,201.957 352.800 C 201.760 352.800,201.600 352.260,201.600 351.600 C 201.600 350.940,201.420 350.400,201.200 350.400 C 200.980 350.400,200.800 350.051,200.800 349.624 C 200.800 349.197,200.620 348.736,200.400 348.600 C 200.180 348.464,200.000 347.949,200.000 347.456 C 200.000 346.963,199.846 346.389,199.658 346.180 C 199.258 345.737,198.000 341.896,198.000 341.120 C 198.000 339.971,195.714 338.633,193.917 338.729 C 192.968 338.781,191.688 338.549,191.054 338.211 C 190.276 337.796,188.778 337.600,186.378 337.600 C 184.436 337.600,182.736 337.420,182.600 337.200 C 182.464 336.980,181.294 336.800,180.000 336.800 C 178.706 336.800,177.536 336.620,177.400 336.400 C 177.264 336.180,176.432 336.000,175.550 336.000 C 174.669 336.000,173.554 335.780,173.074 335.511 C 172.593 335.243,171.403 335.012,170.430 335.000 C 169.409 334.987,168.590 334.770,168.496 334.489 C 168.401 334.203,167.608 334.000,166.590 334.000 C 165.632 334.000,164.736 333.820,164.600 333.600 C 164.464 333.380,163.643 333.200,162.776 333.200 C 161.909 333.200,161.200 333.020,161.200 332.800 C 161.200 332.580,160.919 332.400,160.575 332.400 C 159.635 332.400,155.976 331.155,154.488 330.328 C 153.766 329.928,152.731 329.600,152.188 329.600 C 151.645 329.600,151.200 329.420,151.200 329.200 C 151.200 328.980,150.679 328.800,150.043 328.800 C 149.362 328.800,148.787 328.542,148.646 328.175 C 148.514 327.831,148.239 327.652,148.035 327.778 C 147.831 327.904,147.393 327.736,147.061 327.404 C 146.729 327.072,146.185 326.800,145.852 326.800 C 145.519 326.800,145.136 326.620,145.000 326.400 C 144.864 326.180,144.403 326.000,143.976 326.000 C 143.549 326.000,143.200 325.820,143.200 325.600 C 143.200 325.380,142.705 325.187,142.100 325.171 C 141.495 325.155,140.460 324.803,139.800 324.389 C 139.140 323.974,138.015 323.337,137.300 322.972 C 136.585 322.607,136.000 322.149,136.000 321.954 C 136.000 321.759,135.634 321.600,135.187 321.600 C 134.741 321.600,134.272 321.331,134.146 321.002 C 134.019 320.674,133.770 320.495,133.590 320.606 C 133.411 320.717,132.993 320.536,132.661 320.204 C 132.329 319.872,131.819 319.596,131.529 319.591 C 131.238 319.586,130.550 319.230,130.000 318.800 C 129.450 318.370,128.794 318.014,128.543 318.009 C 128.291 318.004,127.978 317.719,127.846 317.375 C 127.714 317.031,127.436 316.854,127.229 316.982 C 127.021 317.110,126.398 316.762,125.844 316.208 C 125.290 315.653,124.558 315.200,124.218 315.200 C 123.878 315.200,123.600 315.020,123.600 314.800 C 123.600 314.580,123.412 314.400,123.183 314.400 C 122.954 314.400,122.549 314.221,122.283 314.003 C 119.318 311.565,118.238 310.800,117.762 310.800 C 117.453 310.800,117.200 310.645,117.200 310.455 C 117.200 309.897,115.142 308.000,114.537 308.000 C 114.232 308.000,112.993 307.010,111.783 305.800 C 110.573 304.590,109.389 303.600,109.152 303.600 C 108.915 303.600,107.685 302.565,106.419 301.300 C 101.122 296.009,101.142 296.021,100.033 297.500 " stroke="none" fill="#fc4237" fill-rule="evenodd"></path><path id="path11" d="M199.862 36.331 C 199.123 37.148,198.989 38.000,199.600 38.000 C 199.820 38.000,200.000 38.366,200.000 38.813 C 200.000 39.259,200.269 39.728,200.598 39.854 C 200.926 39.981,201.094 40.247,200.971 40.447 C 200.847 40.647,201.029 41.376,201.373 42.067 C 201.718 42.758,202.000 43.565,202.000 43.861 C 202.000 44.158,202.180 44.400,202.400 44.400 C 202.620 44.400,202.800 45.030,202.800 45.800 C 202.800 46.570,202.980 47.200,203.200 47.200 C 203.420 47.200,203.600 47.560,203.600 48.000 C 203.600 48.440,203.760 48.800,203.955 48.800 C 204.151 48.800,204.429 49.430,204.574 50.200 C 204.718 50.970,205.008 51.600,205.218 51.600 C 205.428 51.600,205.600 52.410,205.600 53.400 C 205.600 54.390,205.780 55.200,206.000 55.200 C 206.220 55.200,206.400 55.532,206.400 55.938 C 206.400 57.634,207.556 58.000,212.908 58.000 C 215.840 58.000,218.056 58.168,218.200 58.400 C 218.336 58.620,219.787 58.800,221.424 58.800 C 223.141 58.800,224.400 58.969,224.400 59.200 C 224.400 59.425,225.517 59.600,226.951 59.600 C 228.731 59.600,229.653 59.781,230.000 60.200 C 230.318 60.583,231.203 60.800,232.449 60.800 C 233.522 60.800,234.400 60.980,234.400 61.200 C 234.400 61.420,235.210 61.600,236.200 61.600 C 237.190 61.600,238.000 61.780,238.000 62.000 C 238.000 62.220,238.529 62.400,239.176 62.400 C 239.823 62.400,240.464 62.580,240.600 62.800 C 240.736 63.020,241.535 63.200,242.375 63.200 C 243.244 63.200,244.116 63.458,244.400 63.800 C 244.674 64.130,245.315 64.400,245.825 64.400 C 246.335 64.400,246.864 64.580,247.000 64.800 C 247.136 65.020,247.681 65.200,248.211 65.200 C 248.742 65.200,249.817 65.560,250.600 66.000 C 251.383 66.440,252.450 66.800,252.969 66.800 C 253.489 66.800,254.018 67.070,254.145 67.400 C 254.271 67.730,254.741 68.000,255.187 68.000 C 255.634 68.000,256.000 68.180,256.000 68.400 C 256.000 68.620,256.529 68.800,257.176 68.800 C 257.823 68.800,258.464 68.980,258.600 69.200 C 258.736 69.420,259.197 69.600,259.624 69.600 C 260.051 69.600,260.400 69.780,260.400 70.000 C 260.400 70.220,260.741 70.400,261.157 70.400 C 261.574 70.400,262.018 70.670,262.145 71.000 C 262.271 71.330,262.645 71.600,262.975 71.600 C 263.305 71.600,264.217 71.960,265.000 72.400 C 265.783 72.840,266.689 73.200,267.012 73.200 C 267.335 73.200,267.600 73.380,267.600 73.600 C 267.600 73.820,267.960 74.000,268.400 74.000 C 268.840 74.000,269.200 74.180,269.200 74.400 C 269.200 74.620,269.620 74.800,270.132 74.800 C 270.718 74.800,271.264 75.172,271.600 75.800 C 271.936 76.428,272.482 76.800,273.068 76.800 C 273.580 76.800,274.000 76.980,274.000 77.200 C 274.000 77.420,274.261 77.600,274.579 77.600 C 274.898 77.600,275.644 78.050,276.238 78.600 C 276.831 79.150,277.521 79.600,277.770 79.600 C 278.019 79.600,278.483 79.960,278.800 80.400 C 279.117 80.840,279.684 81.200,280.059 81.200 C 280.435 81.200,281.096 81.650,281.529 82.200 C 281.961 82.750,282.604 83.200,282.958 83.200 C 283.311 83.200,283.600 83.380,283.600 83.600 C 283.600 83.820,283.870 84.000,284.200 84.000 C 284.530 84.000,284.800 84.180,284.800 84.400 C 284.800 84.620,285.056 84.800,285.368 84.800 C 285.680 84.800,286.715 85.607,287.668 86.593 C 288.621 87.580,289.629 88.390,289.909 88.393 C 290.189 88.397,291.392 89.390,292.583 90.600 C 293.774 91.810,294.943 92.800,295.182 92.800 C 295.421 92.800,296.840 94.015,298.336 95.500 C 302.404 99.539,302.180 99.411,303.516 98.459 C 304.146 98.011,304.999 96.824,305.413 95.822 C 305.826 94.820,306.307 94.000,306.482 94.000 C 306.657 94.000,306.800 93.569,306.800 93.043 C 306.800 92.516,307.035 91.995,307.322 91.885 C 307.609 91.775,308.088 90.946,308.386 90.043 C 308.684 89.139,309.079 88.400,309.264 88.400 C 309.449 88.400,309.600 87.770,309.600 87.000 C 309.600 86.230,309.780 85.600,310.000 85.600 C 310.220 85.600,310.400 85.259,310.400 84.843 C 310.400 84.426,310.670 83.982,311.000 83.855 C 311.351 83.721,311.600 83.121,311.600 82.413 C 311.600 81.746,311.780 81.200,312.000 81.200 C 312.220 81.200,312.400 80.584,312.400 79.831 C 312.400 78.432,310.527 76.000,309.450 76.000 C 309.181 76.000,308.340 75.360,307.581 74.579 C 304.884 71.802,304.642 71.600,304.020 71.600 C 303.673 71.600,303.032 71.119,302.595 70.530 C 301.419 68.947,300.324 68.000,299.670 68.000 C 299.351 68.000,298.552 67.370,297.894 66.600 C 297.236 65.830,296.401 65.200,296.037 65.200 C 295.674 65.200,295.117 64.840,294.800 64.400 C 294.483 63.960,293.844 63.600,293.379 63.600 C 292.888 63.600,292.311 63.182,292.000 62.600 C 291.706 62.050,291.169 61.600,290.808 61.600 C 290.446 61.600,289.764 61.240,289.292 60.800 C 288.820 60.360,288.227 60.000,287.974 60.000 C 287.722 60.000,287.161 59.550,286.729 59.000 C 286.296 58.450,285.690 58.000,285.383 58.000 C 285.076 58.000,284.183 57.640,283.400 57.200 C 282.617 56.760,281.711 56.400,281.388 56.400 C 281.065 56.400,280.800 56.195,280.800 55.944 C 280.800 55.329,279.565 54.428,278.700 54.413 C 278.315 54.406,278.000 54.220,278.000 54.000 C 278.000 53.780,277.640 53.600,277.200 53.600 C 276.760 53.600,276.400 53.420,276.400 53.200 C 276.400 52.980,275.950 52.800,275.400 52.800 C 274.850 52.800,274.399 52.665,274.397 52.500 C 274.394 52.098,272.081 50.800,271.368 50.800 C 271.055 50.800,270.800 50.620,270.800 50.400 C 270.800 50.180,270.440 50.000,270.000 50.000 C 269.560 50.000,269.200 49.820,269.200 49.600 C 269.200 49.380,268.570 49.200,267.800 49.200 C 267.030 49.200,266.400 49.055,266.400 48.877 C 266.400 48.473,263.564 47.200,262.666 47.200 C 262.300 47.200,262.000 47.020,262.000 46.800 C 262.000 46.580,261.550 46.400,261.000 46.400 C 260.450 46.400,260.000 46.220,260.000 46.000 C 260.000 45.780,259.475 45.600,258.833 45.600 C 258.192 45.600,257.605 45.416,257.531 45.192 C 257.456 44.967,256.813 44.742,256.102 44.692 C 255.392 44.641,254.724 44.375,254.618 44.100 C 254.512 43.825,253.890 43.600,253.236 43.600 C 252.582 43.600,251.936 43.420,251.800 43.200 C 251.664 42.980,251.023 42.800,250.376 42.800 C 249.729 42.800,249.200 42.620,249.200 42.400 C 249.200 42.180,248.675 42.000,248.033 42.000 C 247.392 42.000,246.802 41.805,246.722 41.567 C 246.643 41.328,245.818 41.094,244.889 41.046 C 243.960 40.999,242.984 40.744,242.720 40.480 C 242.456 40.216,241.657 40.000,240.944 40.000 C 240.231 40.000,239.536 39.820,239.400 39.600 C 239.264 39.380,238.274 39.200,237.200 39.200 C 236.126 39.200,235.136 39.020,235.000 38.800 C 234.864 38.580,233.968 38.400,233.010 38.400 C 231.996 38.400,231.199 38.196,231.104 37.913 C 231.002 37.606,230.067 37.422,228.571 37.413 C 227.125 37.405,226.075 37.205,225.880 36.900 C 225.666 36.565,224.447 36.400,222.180 36.400 C 220.193 36.400,218.800 36.235,218.800 36.000 C 218.800 35.173,200.623 35.491,199.862 36.331 " stroke="none" fill="#00b3e3" fill-rule="evenodd"></path><path id="path12" d="M40.924 173.800 C 40.926 175.120,41.001 175.612,41.090 174.893 C 41.179 174.174,41.177 173.094,41.086 172.493 C 40.995 171.892,40.922 172.480,40.924 173.800 M56.152 197.085 C 55.751 197.378,55.206 197.534,54.941 197.433 C 54.675 197.331,54.243 197.507,53.980 197.824 C 53.717 198.141,53.080 198.400,52.563 198.400 C 52.047 198.400,50.988 198.757,50.211 199.194 C 49.434 199.630,48.263 200.028,47.609 200.078 C 46.956 200.128,46.327 200.412,46.213 200.710 C 46.099 201.007,45.837 201.146,45.630 201.019 C 45.424 200.891,45.142 200.970,45.003 201.195 C 44.865 201.419,43.963 201.961,43.000 202.400 C 42.037 202.839,41.135 203.381,40.997 203.605 C 40.858 203.830,40.549 203.892,40.311 203.745 C 40.050 203.584,39.992 203.663,40.164 203.941 C 40.324 204.201,40.175 204.511,39.825 204.646 C 39.112 204.919,38.903 209.940,39.576 210.620 C 39.783 210.829,39.988 212.799,40.032 214.998 C 40.085 217.690,40.299 219.284,40.687 219.876 C 41.032 220.403,41.218 221.488,41.151 222.578 C 41.088 223.610,41.247 224.607,41.520 224.880 C 41.792 225.152,42.000 226.452,42.000 227.880 C 42.000 229.293,42.176 230.400,42.400 230.400 C 42.620 230.400,42.800 231.084,42.800 231.920 C 42.800 232.756,42.965 233.611,43.166 233.820 C 43.368 234.029,43.586 234.830,43.652 235.600 C 43.717 236.370,44.024 237.405,44.332 237.901 C 44.641 238.396,44.804 239.265,44.696 239.832 C 44.571 240.487,44.700 240.940,45.049 241.074 C 45.401 241.209,45.600 241.920,45.600 243.043 C 45.600 244.009,45.780 244.800,46.000 244.800 C 46.220 244.800,46.400 245.329,46.400 245.976 C 46.400 246.623,46.580 247.264,46.800 247.400 C 47.020 247.536,47.200 248.155,47.200 248.775 C 47.200 249.395,47.483 250.137,47.828 250.423 C 48.173 250.710,48.372 251.265,48.269 251.657 C 48.167 252.050,48.334 252.579,48.641 252.834 C 48.949 253.089,49.200 253.816,49.200 254.449 C 49.200 255.082,49.380 255.600,49.600 255.600 C 49.820 255.600,50.000 256.061,50.000 256.624 C 50.000 257.204,50.173 257.540,50.400 257.400 C 50.620 257.264,50.800 257.523,50.800 257.976 C 50.800 259.264,50.827 259.363,51.346 260.000 C 51.615 260.330,52.073 261.140,52.364 261.800 C 52.655 262.460,53.052 263.313,53.247 263.695 C 53.441 264.077,53.600 264.842,53.600 265.395 C 53.600 265.948,53.780 266.400,54.000 266.400 C 54.220 266.400,54.400 266.738,54.400 267.151 C 54.400 267.564,54.670 268.126,55.000 268.400 C 55.330 268.674,55.600 269.146,55.600 269.449 C 55.600 269.752,55.780 270.000,56.000 270.000 C 56.220 270.000,56.400 270.450,56.400 271.000 C 56.400 271.550,56.580 272.000,56.800 272.000 C 57.020 272.000,57.200 272.360,57.200 272.800 C 57.200 273.240,57.380 273.600,57.600 273.600 C 57.820 273.600,58.000 273.941,58.000 274.357 C 58.000 274.774,58.281 275.222,58.625 275.354 C 58.969 275.486,59.139 275.776,59.002 275.997 C 58.865 276.219,59.033 276.400,59.376 276.400 C 59.719 276.400,60.000 276.665,60.000 276.988 C 60.000 277.311,60.360 278.217,60.800 279.000 C 61.240 279.783,61.600 280.623,61.600 280.866 C 61.600 281.109,62.050 281.725,62.600 282.235 C 63.150 282.745,63.600 283.401,63.600 283.693 C 63.600 283.985,63.960 284.483,64.400 284.800 C 64.840 285.117,65.200 285.756,65.200 286.221 C 65.200 286.712,65.618 287.289,66.200 287.600 C 66.777 287.909,67.200 288.489,67.200 288.971 C 67.200 289.431,67.560 290.032,68.000 290.307 C 68.440 290.582,68.800 291.099,68.800 291.456 C 68.800 291.813,69.430 292.700,70.200 293.426 C 70.970 294.152,71.600 295.028,71.600 295.373 C 71.600 295.718,71.780 296.000,72.000 296.000 C 72.220 296.000,72.400 296.270,72.400 296.600 C 72.400 296.930,72.625 297.155,72.900 297.100 C 73.175 297.045,73.355 297.225,73.300 297.500 C 73.245 297.775,73.470 298.000,73.800 298.000 C 74.130 298.000,74.400 298.268,74.400 298.595 C 74.400 299.438,75.878 301.211,77.734 302.595 C 78.320 303.032,78.800 303.644,78.800 303.955 C 78.800 304.265,79.430 305.131,80.200 305.879 C 80.970 306.627,81.600 307.420,81.600 307.643 C 81.600 307.865,81.780 307.936,82.000 307.800 C 82.220 307.664,82.405 307.788,82.411 308.076 C 82.417 308.364,83.042 309.050,83.800 309.600 C 84.558 310.150,85.183 310.836,85.189 311.124 C 85.195 311.412,85.380 311.536,85.600 311.400 C 85.820 311.264,86.000 311.433,86.000 311.776 C 86.000 312.119,86.146 312.400,86.325 312.400 C 86.503 312.400,87.041 312.765,87.521 313.212 C 88.411 314.041,90.400 313.432,90.400 312.330 C 90.400 312.123,90.580 312.064,90.800 312.200 C 91.038 312.347,91.200 311.871,91.200 311.024 C 91.200 310.241,91.380 309.600,91.600 309.600 C 91.820 309.600,92.000 309.255,92.000 308.833 C 92.000 308.412,92.190 308.003,92.422 307.926 C 92.654 307.849,92.891 307.459,92.950 307.061 C 93.008 306.662,93.224 306.215,93.430 306.068 C 93.635 305.921,93.863 305.282,93.937 304.649 C 94.010 304.017,94.415 302.886,94.835 302.137 C 95.256 301.388,95.600 300.530,95.600 300.231 C 95.600 299.931,95.881 299.578,96.225 299.446 C 96.569 299.314,96.748 299.039,96.622 298.835 C 96.496 298.631,96.664 298.193,96.996 297.861 C 97.328 297.529,97.600 296.985,97.600 296.652 C 97.600 296.319,97.780 295.936,98.000 295.800 C 98.768 295.326,98.421 293.304,97.407 292.342 C 96.861 291.824,96.411 291.202,96.407 290.959 C 96.403 290.717,95.815 289.907,95.100 289.159 C 94.386 288.412,93.850 287.652,93.910 287.470 C 93.971 287.289,93.867 287.235,93.681 287.350 C 93.268 287.605,92.000 286.190,92.000 285.474 C 92.000 285.190,91.379 284.355,90.620 283.619 C 89.861 282.883,89.276 282.151,89.320 281.991 C 89.364 281.831,88.815 281.053,88.100 280.261 C 87.385 279.469,86.800 278.680,86.800 278.507 C 86.800 278.333,86.350 277.707,85.800 277.113 C 85.250 276.520,84.800 275.823,84.800 275.564 C 84.800 275.306,84.430 274.773,83.978 274.381 C 83.525 273.988,83.127 273.297,83.093 272.844 C 83.059 272.391,82.788 271.927,82.490 271.813 C 82.193 271.699,82.045 271.451,82.162 271.261 C 82.279 271.071,81.931 270.499,81.388 269.988 C 80.844 269.478,80.400 268.732,80.400 268.330 C 80.400 267.929,80.220 267.600,80.000 267.600 C 79.780 267.600,79.600 267.262,79.600 266.849 C 79.600 266.436,79.330 265.874,79.000 265.600 C 78.670 265.326,78.400 264.894,78.400 264.639 C 78.400 264.385,78.040 263.917,77.600 263.600 C 77.160 263.283,76.787 262.748,76.771 262.412 C 76.755 262.075,76.405 261.260,75.993 260.600 C 74.540 258.270,74.000 257.067,74.000 256.162 C 74.000 255.659,73.820 255.136,73.600 255.000 C 73.380 254.864,73.200 254.403,73.200 253.976 C 73.200 253.549,73.020 253.200,72.800 253.200 C 72.580 253.200,72.400 252.855,72.400 252.433 C 72.400 252.012,72.190 251.597,71.933 251.511 C 71.677 251.426,71.467 250.788,71.467 250.095 C 71.467 249.402,71.227 248.742,70.933 248.630 C 70.640 248.517,70.400 248.059,70.400 247.613 C 70.400 247.166,70.220 246.800,70.000 246.800 C 69.780 246.800,69.600 246.275,69.600 245.633 C 69.600 244.992,69.431 244.407,69.225 244.333 C 69.018 244.260,68.776 243.750,68.687 243.200 C 68.598 242.650,68.317 241.693,68.063 241.074 C 67.808 240.455,67.600 239.690,67.600 239.374 C 67.600 239.058,67.420 238.800,67.200 238.800 C 66.980 238.800,66.800 237.990,66.800 237.000 C 66.800 236.010,66.620 235.200,66.400 235.200 C 66.180 235.200,66.000 234.390,66.000 233.400 C 66.000 232.410,65.820 231.600,65.600 231.600 C 65.380 231.600,65.200 231.048,65.200 230.374 C 65.200 229.699,64.988 228.754,64.729 228.274 C 64.470 227.793,64.264 226.545,64.271 225.500 C 64.281 224.161,64.125 223.600,63.742 223.600 C 63.342 223.600,63.200 222.926,63.200 221.024 C 63.200 219.607,63.020 218.336,62.800 218.200 C 62.579 218.064,62.400 216.270,62.400 214.200 C 62.400 212.130,62.221 210.336,62.000 210.200 C 61.762 210.053,61.600 207.529,61.600 203.976 C 61.600 198.496,61.532 197.932,60.785 197.185 C 59.851 196.251,57.366 196.197,56.152 197.085 " stroke="none" fill="#ff6b00" fill-rule="evenodd"></path><path id="path13" d="M185.000 36.000 C 184.864 36.220,183.311 36.400,181.548 36.400 C 179.232 36.400,178.176 36.567,177.743 37.000 C 177.344 37.398,176.346 37.600,174.771 37.600 C 173.457 37.600,172.400 37.778,172.400 38.000 C 172.400 38.220,171.511 38.400,170.424 38.400 C 169.337 38.400,168.336 38.580,168.200 38.800 C 168.064 39.020,167.153 39.200,166.176 39.200 C 165.199 39.200,164.400 39.380,164.400 39.600 C 164.400 39.820,163.725 40.006,162.900 40.013 C 162.075 40.020,161.051 40.290,160.624 40.613 C 160.196 40.936,159.262 41.200,158.547 41.200 C 157.832 41.200,157.136 41.380,157.000 41.600 C 156.864 41.820,156.223 42.000,155.576 42.000 C 154.929 42.000,154.400 42.180,154.400 42.400 C 154.400 42.620,153.770 42.800,153.000 42.800 C 152.230 42.800,151.600 42.980,151.600 43.200 C 151.600 43.420,151.137 43.600,150.571 43.600 C 150.006 43.600,149.273 43.870,148.943 44.200 C 148.613 44.530,147.916 44.800,147.395 44.800 C 146.874 44.800,146.336 44.980,146.200 45.200 C 146.064 45.420,145.423 45.600,144.776 45.600 C 144.129 45.600,143.600 45.780,143.600 46.000 C 143.600 46.220,143.251 46.400,142.824 46.400 C 142.397 46.400,141.936 46.580,141.800 46.800 C 141.664 47.020,141.135 47.200,140.625 47.200 C 140.115 47.200,139.474 47.470,139.200 47.800 C 138.926 48.130,138.364 48.400,137.951 48.400 C 137.538 48.400,137.199 48.535,137.197 48.700 C 137.192 49.143,135.179 50.000,134.144 50.000 C 133.651 50.000,133.136 50.180,133.000 50.400 C 132.864 50.620,132.481 50.800,132.150 50.800 C 131.818 50.800,130.957 51.250,130.236 51.800 C 129.514 52.350,128.626 52.800,128.262 52.800 C 127.898 52.800,127.600 52.980,127.600 53.200 C 127.600 53.420,127.268 53.600,126.862 53.600 C 126.456 53.600,125.813 53.944,125.433 54.364 C 125.052 54.784,124.304 55.238,123.771 55.372 C 123.237 55.506,122.800 55.792,122.800 56.008 C 122.800 56.223,122.440 56.400,122.000 56.400 C 121.560 56.400,121.200 56.580,121.200 56.800 C 121.200 57.020,120.874 57.200,120.475 57.200 C 120.077 57.200,119.392 57.515,118.954 57.900 C 117.989 58.747,117.023 59.364,115.300 60.235 C 114.585 60.596,114.000 61.051,114.000 61.246 C 114.000 61.441,113.653 61.600,113.229 61.600 C 112.805 61.600,112.104 62.050,111.671 62.600 C 111.239 63.150,110.596 63.600,110.242 63.600 C 109.889 63.600,109.600 63.780,109.600 64.000 C 109.600 64.220,109.330 64.400,109.000 64.400 C 108.670 64.400,108.400 64.580,108.400 64.800 C 108.400 65.020,108.127 65.200,107.793 65.200 C 107.459 65.200,106.574 65.830,105.826 66.600 C 105.079 67.370,104.280 68.000,104.051 68.000 C 103.822 68.000,102.637 68.990,101.417 70.200 C 100.198 71.410,98.975 72.404,98.700 72.409 C 98.425 72.414,97.230 73.404,96.045 74.609 C 94.860 75.814,93.709 76.800,93.488 76.800 C 92.780 76.800,86.001 83.772,86.000 84.500 C 86.000 85.247,87.342 86.800,87.988 86.800 C 88.201 86.800,89.017 87.160,89.800 87.600 C 90.583 88.040,91.669 88.400,92.212 88.400 C 92.755 88.400,93.200 88.580,93.200 88.800 C 93.200 89.020,93.566 89.200,94.013 89.200 C 94.459 89.200,94.929 89.470,95.055 89.800 C 95.182 90.130,95.626 90.400,96.043 90.400 C 96.459 90.400,96.800 90.580,96.800 90.800 C 96.800 91.020,97.250 91.200,97.800 91.200 C 98.350 91.200,98.800 91.380,98.800 91.600 C 98.800 91.820,99.160 92.000,99.600 92.000 C 100.040 92.000,100.400 92.180,100.400 92.400 C 100.400 92.620,100.741 92.800,101.157 92.800 C 101.574 92.800,102.018 93.070,102.145 93.400 C 102.271 93.730,102.741 94.000,103.187 94.000 C 103.634 94.000,104.000 94.180,104.000 94.400 C 104.000 95.940,106.905 94.689,109.573 92.000 C 111.100 90.460,112.559 89.200,112.815 89.200 C 113.070 89.200,113.783 88.660,114.400 88.000 C 115.017 87.340,115.737 86.800,116.000 86.800 C 116.264 86.800,117.110 86.170,117.880 85.400 C 118.650 84.630,119.551 84.000,119.882 84.000 C 120.214 84.000,120.839 83.550,121.271 83.000 C 121.704 82.450,122.365 82.000,122.741 82.000 C 123.116 82.000,123.683 81.640,124.000 81.200 C 124.317 80.760,124.882 80.400,125.255 80.400 C 125.628 80.400,125.993 80.248,126.067 80.062 C 126.306 79.455,130.279 76.800,130.948 76.800 C 131.306 76.800,131.600 76.620,131.600 76.400 C 131.600 76.180,131.848 76.000,132.151 76.000 C 132.454 76.000,132.926 75.730,133.200 75.400 C 133.474 75.070,134.036 74.800,134.449 74.800 C 134.862 74.800,135.200 74.620,135.200 74.400 C 135.200 74.180,135.408 74.000,135.662 74.000 C 135.916 74.000,136.681 73.577,137.362 73.061 C 138.043 72.544,139.275 71.900,140.100 71.630 C 140.925 71.359,141.600 70.972,141.600 70.769 C 141.600 70.566,141.962 70.400,142.405 70.400 C 142.848 70.400,143.613 70.192,144.105 69.938 C 144.597 69.684,145.270 69.345,145.600 69.185 C 145.930 69.025,146.141 68.578,146.070 68.193 C 145.977 67.689,146.122 67.561,146.585 67.739 C 146.968 67.886,147.323 67.745,147.458 67.393 C 147.583 67.067,148.007 66.800,148.400 66.800 C 148.793 66.800,149.220 66.525,149.349 66.188 C 149.542 65.686,150.051 65.624,152.192 65.843 C 153.880 66.016,154.800 65.966,154.800 65.701 C 154.800 65.475,155.295 65.195,155.900 65.078 C 158.473 64.581,160.195 64.014,160.326 63.621 C 160.403 63.390,160.992 63.200,161.633 63.200 C 162.275 63.200,162.800 63.020,162.800 62.800 C 162.800 62.580,163.599 62.400,164.576 62.400 C 165.553 62.400,166.452 62.239,166.574 62.042 C 166.695 61.845,167.471 61.583,168.297 61.458 C 169.124 61.333,170.869 61.076,172.176 60.886 C 173.484 60.696,174.624 60.329,174.710 60.071 C 174.808 59.775,175.821 59.600,177.433 59.600 C 178.878 59.600,180.000 59.425,180.000 59.200 C 180.000 58.967,181.333 58.800,183.200 58.800 C 185.067 58.800,186.400 58.633,186.400 58.400 C 186.400 58.148,189.155 58.000,193.864 58.000 L 201.329 58.000 202.464 56.728 C 203.600 55.456,203.988 53.487,203.200 53.000 C 202.980 52.864,202.800 52.326,202.800 51.805 C 202.800 51.284,202.530 50.587,202.200 50.257 C 201.870 49.927,201.600 49.290,201.600 48.841 C 201.600 48.392,201.240 47.383,200.800 46.600 C 200.360 45.817,200.000 44.849,200.000 44.449 C 200.000 43.718,199.390 42.418,198.007 40.200 C 197.595 39.540,197.245 38.761,197.229 38.469 C 197.117 36.428,195.047 35.600,190.054 35.600 C 187.281 35.600,185.143 35.769,185.000 36.000 " stroke="none" fill="#24ce7b" fill-rule="evenodd"></path><path id="path14" d="M149.345 66.200 C 149.218 66.530,148.793 66.800,148.400 66.800 C 148.007 66.800,147.583 67.067,147.458 67.393 C 147.319 67.756,146.970 67.887,146.561 67.730 C 146.095 67.551,145.948 67.645,146.079 68.036 C 146.333 68.802,147.504 68.978,148.245 68.362 C 148.579 68.085,149.323 67.838,149.898 67.813 C 150.473 67.788,151.017 67.550,151.105 67.284 C 151.194 67.018,151.522 66.800,151.833 66.800 C 152.599 66.800,152.553 66.144,151.767 65.843 C 150.665 65.420,149.583 65.579,149.345 66.200 " stroke="none" fill="#90e3b2" fill-rule="evenodd"></path><path id="path15" d="M81.921 88.700 C 81.364 89.305,80.569 90.095,80.154 90.456 C 78.330 92.042,75.999 94.716,75.989 95.234 C 75.983 95.545,75.173 96.504,74.189 97.365 C 73.205 98.226,72.400 99.177,72.400 99.478 C 72.400 99.780,71.770 100.657,71.000 101.427 C 70.230 102.197,69.600 103.051,69.600 103.325 C 69.600 103.599,69.240 104.083,68.800 104.400 C 68.360 104.717,68.000 105.272,68.000 105.634 C 68.000 105.995,67.591 106.720,67.091 107.245 C 66.592 107.770,65.931 108.695,65.624 109.300 C 65.316 109.905,64.915 110.400,64.732 110.400 C 64.550 110.400,64.400 110.678,64.400 111.018 C 64.400 111.358,63.950 112.086,63.400 112.636 C 62.850 113.186,62.400 113.898,62.400 114.218 C 62.400 114.538,62.220 114.800,62.000 114.800 C 61.780 114.800,61.600 115.160,61.600 115.600 C 61.600 116.040,61.420 116.400,61.200 116.400 C 60.980 116.400,60.800 116.670,60.800 117.000 C 60.800 117.330,60.620 117.600,60.400 117.600 C 60.180 117.600,60.000 117.941,60.000 118.357 C 60.000 118.774,59.730 119.218,59.400 119.345 C 59.070 119.471,58.800 119.941,58.800 120.387 C 58.800 120.834,58.620 121.200,58.400 121.200 C 58.180 121.200,58.000 121.560,58.000 122.000 C 58.000 122.440,57.820 122.800,57.600 122.800 C 57.380 122.800,57.200 123.250,57.200 123.800 C 57.200 124.350,57.020 124.800,56.800 124.800 C 56.580 124.800,56.400 125.141,56.400 125.557 C 56.400 125.974,56.130 126.418,55.800 126.545 C 55.470 126.671,55.200 127.141,55.200 127.587 C 55.200 128.034,55.020 128.400,54.800 128.400 C 54.580 128.400,54.400 128.760,54.400 129.200 C 54.400 129.640,54.220 130.000,54.000 130.000 C 53.780 130.000,53.600 130.349,53.600 130.776 C 53.600 131.203,53.420 131.664,53.200 131.800 C 52.980 131.936,52.800 132.562,52.800 133.190 C 52.800 133.819,52.654 134.393,52.476 134.467 C 51.926 134.693,50.000 138.903,50.000 139.879 C 50.000 140.385,49.820 140.800,49.600 140.800 C 49.380 140.800,49.200 141.124,49.200 141.520 C 49.200 141.916,49.029 142.411,48.819 142.621 C 48.610 142.830,48.392 143.697,48.334 144.546 C 48.277 145.395,47.999 146.179,47.715 146.288 C 47.432 146.397,47.200 146.996,47.200 147.619 C 47.200 148.243,47.020 148.864,46.800 149.000 C 46.580 149.136,46.400 149.777,46.400 150.424 C 46.400 151.071,46.220 151.600,46.000 151.600 C 45.780 151.600,45.600 152.230,45.600 153.000 C 45.600 153.770,45.420 154.400,45.200 154.400 C 44.980 154.400,44.800 154.996,44.800 155.724 C 44.800 156.451,44.536 157.396,44.213 157.824 C 43.890 158.251,43.620 159.275,43.613 160.100 C 43.606 160.925,43.420 161.600,43.200 161.600 C 42.980 161.600,42.800 162.590,42.800 163.800 C 42.800 165.010,42.620 166.000,42.400 166.000 C 42.180 166.000,42.000 166.990,42.000 168.200 C 42.000 169.410,41.820 170.400,41.600 170.400 C 41.372 170.400,41.200 171.575,41.200 173.124 C 41.200 174.899,40.996 176.117,40.613 176.624 C 40.197 177.173,40.022 178.482,40.013 181.100 C 40.005 183.292,39.837 184.800,39.600 184.800 C 38.779 184.800,39.094 199.380,39.931 200.138 C 40.748 200.877,41.600 201.011,41.600 200.400 C 41.600 200.180,42.230 200.000,43.000 200.000 C 43.770 200.000,44.400 199.860,44.400 199.690 C 44.400 199.519,45.208 199.024,46.196 198.590 C 47.184 198.155,47.994 197.665,47.996 197.500 C 47.998 197.335,48.630 197.200,49.400 197.200 C 50.170 197.200,50.800 197.020,50.800 196.800 C 50.800 196.580,51.340 196.400,52.000 196.400 C 52.660 196.400,53.200 196.220,53.200 196.000 C 53.200 195.780,53.695 195.594,54.300 195.587 C 54.905 195.580,55.749 195.310,56.176 194.987 C 56.604 194.664,57.369 194.400,57.876 194.400 C 58.384 194.400,58.800 194.220,58.800 194.000 C 58.800 193.780,59.132 193.600,59.538 193.600 C 60.993 193.600,61.600 192.326,61.600 189.269 C 61.600 187.623,61.771 186.400,62.000 186.400 C 62.240 186.400,62.400 184.800,62.400 182.400 C 62.400 180.000,62.560 178.400,62.800 178.400 C 63.028 178.400,63.200 177.214,63.200 175.643 C 63.200 173.561,63.347 172.829,63.800 172.655 C 64.223 172.493,64.400 171.832,64.400 170.413 C 64.400 169.306,64.580 168.400,64.800 168.400 C 65.020 168.400,65.200 167.590,65.200 166.600 C 65.200 165.610,65.380 164.800,65.600 164.800 C 65.820 164.800,66.000 163.810,66.000 162.600 C 66.000 161.390,66.180 160.400,66.400 160.400 C 66.620 160.400,66.800 159.789,66.800 159.043 C 66.800 158.205,67.030 157.597,67.400 157.455 C 67.751 157.321,68.000 156.721,68.000 156.013 C 68.000 155.346,68.180 154.800,68.400 154.800 C 68.620 154.800,68.800 154.271,68.800 153.624 C 68.800 152.977,68.980 152.336,69.200 152.200 C 69.420 152.064,69.600 151.423,69.600 150.776 C 69.600 150.129,69.780 149.600,70.000 149.600 C 70.220 149.600,70.400 149.262,70.400 148.849 C 70.400 148.436,70.670 147.874,71.000 147.600 C 71.330 147.326,71.600 146.685,71.600 146.175 C 71.600 145.665,71.780 145.136,72.000 145.000 C 72.220 144.864,72.400 144.223,72.400 143.576 C 72.400 142.929,72.580 142.400,72.800 142.400 C 73.020 142.400,73.200 142.051,73.200 141.624 C 73.200 141.197,73.380 140.736,73.600 140.600 C 73.820 140.464,74.000 140.023,74.000 139.619 C 74.000 139.216,74.270 138.782,74.600 138.655 C 74.930 138.529,75.200 138.059,75.200 137.613 C 75.200 137.166,75.380 136.800,75.600 136.800 C 75.820 136.800,76.000 136.440,76.000 136.000 C 76.000 135.560,76.180 135.200,76.400 135.200 C 76.620 135.200,76.800 134.851,76.800 134.424 C 76.800 133.997,76.980 133.536,77.200 133.400 C 77.420 133.264,77.600 132.803,77.600 132.376 C 77.600 131.949,77.760 131.600,77.957 131.600 C 78.153 131.600,78.426 131.150,78.564 130.600 C 78.702 130.050,78.992 129.600,79.208 129.600 C 79.423 129.600,79.600 129.280,79.600 128.888 C 79.600 128.497,79.960 127.917,80.400 127.600 C 80.840 127.283,81.200 126.613,81.200 126.112 C 81.200 125.610,81.380 125.200,81.600 125.200 C 81.820 125.200,82.000 124.911,82.000 124.558 C 82.000 124.204,82.450 123.561,83.000 123.129 C 83.550 122.696,84.000 122.035,84.000 121.659 C 84.000 121.284,84.360 120.717,84.800 120.400 C 85.240 120.083,85.600 119.601,85.600 119.330 C 85.600 119.058,86.050 118.386,86.600 117.836 C 87.150 117.286,87.600 116.636,87.600 116.391 C 87.600 116.147,88.228 115.284,88.997 114.473 C 89.765 113.663,90.395 112.800,90.397 112.555 C 90.398 112.310,91.386 111.140,92.591 109.955 C 93.796 108.770,94.786 107.572,94.791 107.294 C 94.796 107.016,96.600 105.003,98.800 102.819 C 102.125 99.520,102.800 98.644,102.800 97.630 C 102.800 96.224,101.748 94.800,100.711 94.800 C 100.320 94.800,100.000 94.620,100.000 94.400 C 100.000 94.180,99.640 94.000,99.200 94.000 C 98.760 94.000,98.400 93.820,98.400 93.600 C 98.400 93.380,97.950 93.200,97.400 93.200 C 96.850 93.200,96.400 93.020,96.400 92.800 C 96.400 92.580,96.152 92.400,95.849 92.400 C 95.546 92.400,95.074 92.130,94.800 91.800 C 94.526 91.470,93.784 91.200,93.151 91.200 C 92.518 91.200,92.000 91.020,92.000 90.800 C 92.000 90.580,91.651 90.400,91.224 90.400 C 90.797 90.400,90.336 90.220,90.200 90.000 C 90.064 89.780,89.438 89.600,88.810 89.600 C 88.181 89.600,87.607 89.465,87.533 89.300 C 86.799 87.648,83.238 87.268,81.921 88.700 " stroke="none" fill="#fdc741" fill-rule="evenodd"></path><path id="path16" d="" stroke="none" fill="#55ff8e" fill-rule="evenodd"></path><path id="path17" d="M174.705 37.483 C 175.202 37.579,175.922 37.575,176.305 37.475 C 176.687 37.375,176.280 37.296,175.400 37.301 C 174.520 37.305,174.207 37.387,174.705 37.483 " stroke="none" fill="#00ffff" fill-rule="evenodd"></path><path id="path18" d="" stroke="none" fill="#ffff00" fill-rule="evenodd"></path></g></svg>